<svg width="854" height="487" viewBox="0 0 854 487" fill="none" xmlns="http://www.w3.org/2000/svg">
<g clip-path="url(#clip0)">
<path opacity="0.1" d="M513.383 351.01C529.881 350.069 550.35 338.882 566.266 333.934C585.102 328.092 604.014 322.472 623 317.074C689.095 298.271 755.9 282.25 823.414 269.01C829.714 267.771 836.025 266.562 842.345 265.383C832.5 244.113 817.246 225.798 798.107 212.266C798.597 207.61 798.847 202.931 798.854 198.25C798.854 124.258 739.708 64.2745 666.723 64.2745C644.252 64.2507 622.159 70.0491 602.598 81.1044C550.94 47.1312 483.516 26.5696 409.746 26.5696C304.922 26.5696 212.901 68.0883 160.757 130.609L405.82 172.001L556.121 197.376C384.776 202.489 212.901 207.571 42.0485 195.57C19.4951 217.388 5.22045 246.359 1.66397 277.532C-1.89251 308.706 5.49 340.147 22.5498 366.481V366.481C22.5498 369.161 22.6618 371.818 22.8633 374.452C27.2155 375.699 31.4183 376.908 35.1881 377.699C95.7097 390.481 156.619 401.179 217.917 409.791C172.746 437.637 117.736 441.578 65.6305 453.37C90.8624 474.193 125.127 486.955 162.885 486.955H725.092C785.969 486.955 835.313 444.586 835.313 392.312C844.449 377.251 850.536 360.543 853.229 343.136C740.582 354.01 626.531 344.569 513.383 351.01Z" fill="#E1AA47"/>
<path opacity="0.1" d="M854 320.873C854.06 299.329 848.937 278.087 839.063 258.938C829.189 239.789 814.853 223.295 797.266 210.848C797.752 206.194 798.001 201.518 798.012 196.839C798.012 122.847 738.837 62.8864 665.881 62.8864C643.409 62.8624 621.314 68.6581 601.749 79.7089C550.091 45.7207 482.659 25.1516 408.89 25.1516C288.897 25.1516 185.611 79.5969 139.805 157.671C137.26 157.522 134.699 157.44 132.116 157.44C59.1529 157.44 -0.0149398 217.423 -0.0149398 291.415C-0.0660809 317.55 7.4867 343.136 21.7232 365.056V365.056C21.7232 431.629 84.5714 485.597 162.066 485.597H724.287C785.157 485.597 834.501 443.22 834.501 390.946C847.303 369.817 854.049 345.576 854 320.873V320.873Z" fill="#E1AA47"/>
<path d="M697.443 238.791C696.376 237.971 695.126 237.423 693.8 237.193C692.404 236.872 690.979 236.671 689.56 236.447L671.181 233.798C669.326 233.453 667.434 233.353 665.553 233.499C664.609 233.576 663.69 233.841 662.849 234.276C662.009 234.712 661.263 235.31 660.656 236.037C660.108 236.712 659.808 237.555 659.805 238.425C659.907 239.3 660.192 240.144 660.641 240.903C660.819 241.257 660.971 241.624 661.096 242C661.272 242.844 661.491 243.678 661.753 244.5C661.834 244.678 661.94 244.844 662.066 244.993C662.07 245.035 662.07 245.077 662.066 245.12C661.865 246.149 662.514 247.224 662.223 248.217C661.969 249.068 661.141 249.583 660.618 250.292C660.27 250.795 660.077 251.389 660.064 252.001C660.05 252.612 660.217 253.215 660.544 253.732C661.103 254.598 662.119 255.188 662.41 256.18C662.791 257.486 661.76 258.748 660.842 259.755C659.153 261.61 657.592 263.577 656.169 265.644C655.769 266.152 655.512 266.757 655.423 267.398C655.34 268.696 656.587 269.838 656.371 271.129C656.199 272.144 655.206 272.764 654.348 273.368C651.175 275.458 648.629 278.817 648.376 282.615C647.561 276.571 645.056 270.88 641.149 266.196C640.082 264.912 638.91 263.621 638.47 261.994C638.305 261.345 638.275 260.651 638.051 260.024C637.305 258.046 634.931 257.195 633.893 255.374C633.147 254.09 633.147 252.441 632.221 251.314C631.296 250.187 629.84 249.933 629.041 248.844C628.642 248.106 628.303 247.337 628.026 246.545C627.691 245.899 627.22 245.334 626.645 244.888C626.535 244.8 626.42 244.718 626.301 244.642C626.425 244.531 626.525 244.395 626.593 244.244C626.661 244.092 626.697 243.927 626.697 243.761C626.697 242.888 625.831 242.313 625.077 241.88C624.107 241.328 623.159 240.731 622.233 240.112C623.243 239.641 624.118 238.926 624.779 238.029C625.607 236.692 625.95 235.111 625.749 233.551C625.698 232.292 625.228 231.087 624.413 230.126C623.943 229.626 623.353 229.267 622.86 228.797C621.584 227.551 621.151 225.707 620.621 224.006C619.919 221.767 618.822 219.416 616.776 218.229C615.791 217.654 614.641 217.386 613.678 216.781C612.715 216.177 611.909 215.035 612.245 213.938C612.469 213.191 613.163 212.676 613.633 212.042C614.195 211.222 614.41 210.213 614.233 209.235C614.055 208.257 613.499 207.388 612.685 206.817C612.133 206.467 611.454 206.161 611.342 205.519C610.909 205.407 610.518 205.175 610.211 204.85C609.905 204.525 609.696 204.121 609.61 203.683C609.442 202.805 609.442 201.904 609.61 201.026C609.804 199.638 609.995 198.254 610.185 196.876C610.513 197.013 610.866 197.083 611.222 197.083C611.578 197.083 611.931 197.013 612.26 196.876C612.906 197.924 613.656 198.905 614.499 199.802C616.772 202.486 618.543 205.558 619.725 208.87C620.15 210.064 620.583 211.4 621.688 212.034C622.069 212.251 622.502 212.363 622.875 212.594C623.335 212.915 623.73 213.32 624.04 213.788C624.935 214.975 625.831 216.154 626.72 217.341L626.764 217.52C626.788 217.625 626.829 217.726 626.884 217.818C627.049 218.005 627.278 218.122 627.526 218.147C630.273 218.781 633.356 219.363 635.737 217.863C637.887 216.52 638.828 213.863 640.649 212.087C641.941 210.825 643.77 209.848 644.135 208.071C643.7 207.937 643.271 207.78 642.852 207.601C643.225 207.228 643.598 206.795 644.106 206.302C644.843 205.581 645.508 204.788 646.091 203.937C646.722 202.886 647.223 201.763 647.584 200.593C649.023 196.493 650.466 192.391 651.914 188.286C652.601 186.345 653.288 184.39 654.154 182.502C655.049 180.457 656.109 178.494 657.087 176.486C659.611 171.265 661.558 165.784 662.895 160.142C663.132 159.372 663.211 158.562 663.127 157.761C662.917 156.47 661.94 155.455 661.006 154.537C660.068 153.521 658.999 152.635 657.826 151.902C657.238 151.536 656.582 151.291 655.898 151.181C655.213 151.07 654.514 151.097 653.84 151.26C651.929 151.82 650.727 153.775 650.287 155.738C649.846 157.701 650.01 159.724 649.824 161.709C649.555 164.582 648.57 167.359 648.331 170.239C648.204 171.904 648.331 173.591 648.129 175.255C647.762 177.433 647.003 179.527 645.89 181.435C643.469 185.985 640.191 190.024 636.237 193.331C635.782 193.712 635.312 194.077 634.864 194.488C634.864 194.167 634.916 193.839 634.961 193.518C634.636 193.602 634.319 193.715 634.013 193.854C634.051 193.477 634.012 193.096 633.901 192.734C633.304 190.95 630.646 190.495 630.168 188.681C630.089 188.233 630.046 187.779 630.041 187.323C629.885 185.733 628.802 184.39 628.429 182.845C628.086 181.42 628.347 179.86 627.683 178.539C627.116 177.713 626.449 176.961 625.697 176.3C624.8 175.275 624.153 174.057 623.808 172.74C623.711 172.374 623.622 171.993 623.517 171.628C623.63 170.8 623.538 169.956 623.248 169.172C622.569 167.485 620.815 166.403 620.18 164.694C619.688 163.366 619.904 161.709 618.971 160.679C618.475 160.187 617.868 159.821 617.202 159.612C613.785 158.281 610.2 157.435 606.549 157.096C604.504 156.91 602.249 156.805 600.786 155.365C599.077 153.693 598.994 150.685 596.994 149.394C595.232 148.252 592.739 149.096 591.373 150.7C591.167 150.936 590.978 151.186 590.805 151.447C590.556 150.446 590.503 149.407 590.648 148.387C590.648 148.133 590.701 147.872 590.723 147.64C594.094 146.539 596.962 144.274 598.815 141.252C598.815 141.252 598.815 141.252 598.815 141.297L598.905 141.528C599.121 142.073 599.465 142.595 599.972 142.655C600.31 142.651 600.636 142.532 600.898 142.319C601.348 142.006 601.764 141.646 602.137 141.244C602.326 141.035 602.505 140.819 602.675 140.595C603.019 140.129 603.314 139.629 603.556 139.102C603.926 138.31 604.178 137.468 604.302 136.602C604.436 135.736 604.451 134.848 604.601 133.982C604.74 133.312 604.922 132.652 605.146 132.005C605.22 131.788 605.295 131.572 605.362 131.355C605.429 131.139 605.526 130.848 605.601 130.609C606.068 129.074 606.319 127.481 606.347 125.877C606.347 125.609 606.347 125.34 606.347 125.071C606.32 124.024 606.084 122.993 605.654 122.038C605.223 121.084 604.606 120.224 603.839 119.511C602.555 118.459 600.853 118.018 599.913 116.593C599.3 115.637 599.166 114.406 598.808 113.286C598.421 111.947 597.666 110.742 596.628 109.81C595.591 108.877 594.314 108.253 592.94 108.01C591.286 107.829 589.626 108.285 588.297 109.286V109.286L588.193 109.368C587.452 109.933 586.824 110.632 586.341 111.428C585.355 111.156 584.452 110.643 583.713 109.935C582.967 109.241 582.392 108.368 581.638 107.696C580.934 107.051 580.069 106.607 579.134 106.41C578.199 106.213 577.228 106.271 576.323 106.577C575.391 106.95 574.56 107.539 573.9 108.296C573.239 109.052 572.768 109.954 572.523 110.928C572.113 112.466 572.187 114.234 571.329 115.518C570.665 116.518 569.575 117.011 568.813 117.921C568.34 118.498 568.017 119.182 567.873 119.914V119.914C567.782 120.323 567.74 120.741 567.746 121.16V121.16C567.746 121.347 567.746 121.534 567.791 121.713C567.791 121.713 567.791 121.772 567.791 121.802C567.817 122.007 567.859 122.209 567.917 122.407V122.407C568.13 123.163 568.51 123.862 569.03 124.452C569.523 125.016 570.138 125.46 570.829 125.75C571.111 125.86 571.401 125.953 571.695 126.026L572.583 126.228L572.897 126.303C571.825 128.315 571.229 130.547 571.157 132.825C571.084 135.104 571.537 137.369 572.479 139.446C572.479 139.655 572.426 139.864 572.404 140.073C572.282 143.011 572.412 145.955 572.792 148.872C572.897 150.029 572.956 151.305 572.247 152.223C571.924 152.584 571.561 152.907 571.165 153.186C571.568 152.663 571.978 152.148 572.397 151.633C571.344 150.573 569.679 150.439 568.186 150.544C565.297 150.759 562.492 151.616 559.975 153.051C558.303 154.014 556.586 155.29 554.675 155.066C553.547 154.94 552.435 154.32 551.338 154.619C550.721 154.871 550.145 155.213 549.628 155.634C549.22 155.926 548.727 156.078 548.225 156.067C547.053 154.626 545.239 153.648 543.835 152.477C542.238 151.055 540.776 149.489 539.468 147.797C537.05 144.879 534.638 141.953 532.264 139.005C530.264 136.527 528.211 133.848 527.86 130.676C527.824 130.361 527.807 130.045 527.808 129.728C527.856 128.221 528.046 126.722 528.375 125.25C528.464 124.895 528.464 124.523 528.375 124.168C528.151 123.422 527.293 123.146 526.554 122.981C526.651 122.407 526.718 121.817 526.755 121.257C527.173 114.839 526.718 108.316 528.077 102.032C528.592 99.6136 529.435 97.1656 531.175 95.4117C533.899 92.6577 538.46 91.9935 540.551 88.732C542.297 86.0153 541.603 82.1717 539.409 79.7759C537.214 77.3802 533.832 76.4025 530.615 76.5219C529.712 76.4909 528.82 76.73 528.054 77.2085C527.338 77.8444 526.802 78.6579 526.501 79.567L523.299 87.3513C522.371 89.3779 521.587 91.4679 520.955 93.6056C520.059 96.8745 519.858 100.323 519.148 103.621C519.148 106.159 517.514 109.323 516.618 111.659C515.617 114.287 514.535 116.884 513.632 119.563C513.408 120.235 512.624 122.228 512.139 124.041C511.955 124.148 511.785 124.276 511.631 124.422C511.241 124.921 510.887 125.447 510.571 125.997C509.892 126.892 508.787 127.37 508.04 128.236C507.294 129.101 507.137 130.691 508.175 131.124C508.385 131.195 508.603 131.242 508.824 131.266C508.96 131.277 509.095 131.3 509.227 131.333C510.347 131.646 510.788 133.057 510.623 134.221C510.459 135.386 509.877 136.46 509.78 137.625C509.578 139.684 510.788 141.603 511.952 143.334C513.158 145.211 514.49 147.004 515.938 148.7C516.991 149.879 518.178 150.939 519.238 152.074C523.277 156.223 526.487 161.074 530.115 165.582C531.42 167.284 532.904 168.84 534.541 170.225C535.611 171.061 536.73 171.831 537.893 172.531L544.134 176.486C544.842 177.005 545.642 177.382 546.493 177.598C546.77 177.636 547.051 177.636 547.329 177.598C547.366 177.785 547.396 177.964 547.441 178.151C547.926 180.106 548.994 181.882 549.113 183.875C549.233 185.868 549.053 187.905 549.195 189.92C549.33 191.779 549.74 193.652 549.845 195.481C550.054 199.003 549.188 202.481 548.352 205.929C547.09 210.975 546.329 216.124 543.873 220.699C543.186 221.961 542.38 223.244 542.38 224.685C542.38 224.856 542.38 225.036 542.424 225.207L541.305 225.842C540.976 226.028 540.648 226.215 540.349 226.409C538.931 227.334 537.415 228.357 536.833 229.954C536.363 231.245 536.579 232.723 536.012 233.977C535.985 234.033 535.955 234.088 535.922 234.141C535.325 235.305 534.138 236.171 533.869 237.447C533.668 238.425 534.056 239.462 533.869 240.433C533.869 240.433 533.869 240.432 533.869 240.47C533.7 240.957 533.565 241.456 533.466 241.962C533.458 242.128 533.473 242.294 533.511 242.455C533.653 243.021 533.966 243.529 534.407 243.91C534.676 244.169 534.968 244.401 535.28 244.605C535.599 244.813 535.927 245.008 536.266 245.187L536.46 245.291C536.743 245.44 537.027 245.582 537.318 245.717L537.512 245.799C537.848 245.948 538.192 246.082 538.535 246.202L538.774 246.276C539.043 246.366 539.319 246.448 539.595 246.515L539.782 246.575L539.953 246.612L540.7 246.769L540.976 246.821C541.305 246.876 541.641 246.921 541.984 246.955H542.283C542.536 246.955 542.783 246.993 543.029 247H543.38C543.641 247 543.895 247 544.126 247H544.395C544.746 247 545.097 246.948 545.448 246.903H545.56C545.873 246.858 546.187 246.806 546.5 246.739L546.739 246.687C547.03 246.62 547.321 246.552 547.613 246.463L547.769 246.418C548.12 246.314 548.471 246.202 548.814 246.067C550.003 245.579 551.155 245.008 552.263 244.358C553.01 243.948 553.756 243.53 554.503 243.149C555.056 242.87 555.625 242.621 556.205 242.403C557.617 241.8 559.153 241.544 560.684 241.656C561.439 241.759 562.188 241.912 562.923 242.112C562.923 242.194 562.923 242.276 562.923 242.358C563.531 245.94 564.13 249.523 564.722 253.105C565.7 252.402 566.733 251.78 567.813 251.247C567.611 251.788 567.478 252.352 567.417 252.926C567.372 253.37 567.372 253.818 567.417 254.262C567.484 254.971 567.634 255.755 567.208 256.315C566.947 256.658 566.462 256.852 566.32 257.24C566.216 257.637 566.191 258.05 566.245 258.457C566.215 258.92 566.018 259.358 565.692 259.689C565.366 260.021 564.932 260.224 564.469 260.263C564.682 260.863 564.687 261.519 564.483 262.123C564.278 262.727 563.876 263.244 563.341 263.591C563.029 263.742 562.738 263.932 562.475 264.159C562.22 264.488 562.049 264.875 561.975 265.286C560.989 268.982 558.96 272.316 556.13 274.891C555.069 275.725 554.1 276.671 553.241 277.712C552.71 278.519 552.272 279.382 551.935 280.287C549.944 285.153 547.924 290.022 545.873 294.893C544.739 297.617 543.634 300.386 543.275 303.319C542.38 311.364 535.213 318.186 536.557 326.172C536.828 328.167 537.633 330.051 538.886 331.627C540.379 333.426 542.618 334.456 544.858 335.292C550.614 337.531 556.683 338.755 562.729 339.986L572.225 341.934C574.088 342.363 575.979 342.662 577.883 342.83C580.175 342.987 582.527 342.77 584.759 343.352C586.14 343.711 587.461 344.375 588.887 344.45C590.111 344.517 591.619 344.255 592.343 345.256C593.067 346.256 592.507 347.577 593.194 348.465C594.299 349.875 596.994 348.465 598.196 349.793C598.524 350.304 598.776 350.859 598.942 351.443C599.125 351.803 599.379 352.123 599.689 352.383C599.762 352.804 599.792 353.232 599.778 353.659C599.622 355.392 599.262 357.101 598.703 358.749C597.807 361.779 596.914 364.812 596.023 367.847C595.683 368.919 595.434 370.018 595.277 371.131C595.221 371.672 595.221 372.217 595.277 372.758C595.434 374.408 596.382 376.109 597.957 376.647C599.179 376.969 600.478 376.809 601.585 376.199C602.653 375.641 603.654 374.965 604.571 374.184C606.224 372.933 607.676 371.438 608.878 369.75C612.611 364.168 611.401 356.615 614.022 350.443C615.761 346.323 619.15 342.979 620.277 338.636C620.541 337.809 620.572 336.926 620.367 336.083C619.897 334.59 618.306 333.74 616.821 333.202H616.754C615.533 332.768 614.287 332.411 613.021 332.135C612.708 332.068 612.387 332.016 612.066 331.963C611.355 331.386 610.79 330.649 610.416 329.814C610.357 329.37 610.239 328.935 610.065 328.523C609.946 328.345 609.787 328.198 609.6 328.094C609.413 327.99 609.204 327.932 608.99 327.926C608.244 327.851 607.243 328.12 606.43 328.06C604.765 327.941 603.66 326.306 602.167 325.552C600.674 324.798 599.054 324.985 597.464 325.097C596.895 325.175 596.317 325.139 595.762 324.993C595.099 324.687 594.493 324.271 593.97 323.761C593.052 323.046 591.979 322.555 590.838 322.326C589.696 322.096 588.517 322.136 587.394 322.44C586.679 322.728 585.923 322.9 585.154 322.948C583.699 322.865 582.668 321.567 581.593 320.582C578.652 317.887 574.464 317.178 570.896 315.41C570.35 315.206 569.894 314.815 569.612 314.305C569.201 313.29 570.127 312.275 570.963 311.581L577.099 306.483C583.818 300.901 592.216 296.699 595.337 288.512C595.662 287.414 596.166 286.377 596.83 285.444C597.071 285.159 597.35 284.908 597.658 284.698C599.016 283.818 600.661 283.498 602.249 283.802C604.185 284.235 606.02 285.036 607.654 286.161C610.326 287.778 612.927 289.519 615.455 291.385C617.959 293.174 620.341 295.129 622.584 297.236C626.503 300.968 629.765 305.394 633.416 309.416C637.066 313.439 641.239 317.193 646.308 319.119C651.377 321.044 657.505 320.962 661.857 317.731C666.881 313.999 668.494 307.327 669.763 301.207C672.562 298.505 673.406 294.393 674.772 290.758C675.63 288.452 676.728 286.28 677.653 283.981C678.758 281.28 679.624 278.488 680.49 275.704C681.471 272.909 682.137 270.013 682.476 267.069C682.834 262.42 681.588 257.471 682.894 253.105C684.618 252.725 686.186 251.754 687.881 251.187C690.404 250.359 693.106 250.493 695.779 250.508H695.95C696.871 250.606 697.798 250.388 698.578 249.889C699.474 249.142 699.616 247.866 699.66 246.709C699.765 243.851 699.586 240.641 697.443 238.791ZM589.282 111.48C588.665 111.633 588.026 111.678 587.394 111.615L589.282 111.48Z" fill="url(#paint0_linear)"/>
<path d="M592.224 158.694C591.32 159.461 590.26 160.024 589.118 160.343L583.825 162.239C580.951 163.269 577.95 164.306 574.92 163.933C573.225 163.724 565.962 162.657 564.864 161.336C563.192 159.291 569.052 156.283 571.053 154.559C571.506 154.233 571.926 153.863 572.307 153.454C573.053 152.544 572.956 151.268 572.852 150.118C572.472 147.207 572.342 144.268 572.464 141.334C572.522 140.634 572.622 139.939 572.762 139.252C573.509 135.818 576.704 137.072 579.227 137.983C582.264 138.969 585.201 140.241 587.998 141.782C588.85 142.221 589.591 142.849 590.163 143.618C591.268 145.289 590.828 147.484 590.648 149.588C590.492 151.223 590.499 152.79 591.522 153.977C592.037 154.43 592.509 154.93 592.933 155.469C593.172 156.013 593.232 156.618 593.104 157.197C592.977 157.777 592.668 158.301 592.224 158.694Z" fill="#BE6F72"/>
<path d="M519.111 104.905C519.858 101.599 520.022 98.1881 520.918 94.9117C521.55 92.7814 522.333 90.6988 523.262 88.6798L526.554 81C526.855 80.0932 527.391 79.2821 528.106 78.649C528.874 78.1738 529.765 77.935 530.667 77.9624C533.884 77.843 537.266 78.8431 539.461 81.209C541.656 83.5749 542.35 87.4036 540.603 90.1128C538.513 93.3743 533.952 94.031 531.227 96.7776C529.488 98.5315 528.644 100.972 528.129 103.383C526.77 109.652 527.226 116.152 526.808 122.556C526.673 124.549 526.285 126.825 524.568 127.855C523.53 128.363 522.376 128.588 521.224 128.504L516.327 128.586C515.505 128.586 512.527 129.101 511.982 128.482C511.026 127.4 513.206 122.011 513.602 120.81C514.483 118.145 515.565 115.548 516.588 112.928C517.476 110.592 519.111 107.435 519.111 104.905Z" fill="#BE6F72"/>
<path d="M620.225 339.375C619.098 343.688 615.709 347.047 613.969 351.159C611.349 357.317 612.529 364.847 608.826 370.415C607.625 372.106 606.172 373.603 604.519 374.855C603.602 375.635 602.6 376.308 601.533 376.863C600.426 377.473 599.126 377.634 597.905 377.311C596.329 376.774 595.381 375.072 595.225 373.43C595.169 372.892 595.169 372.349 595.225 371.81C595.381 370.699 595.631 369.603 595.971 368.534C596.867 365.514 597.76 362.489 598.651 359.459C599.209 357.815 599.569 356.112 599.726 354.383C599.823 352.503 598.629 350.055 599.136 348.301C599.368 347.51 600.234 346.808 600.629 346.144C601.191 345.188 601.623 344.161 601.913 343.091C602.525 341.009 602.943 338.785 604.227 337.031C605.065 335.991 606.045 335.074 607.139 334.307C607.946 333.6 608.892 333.068 609.916 332.747C610.909 332.572 611.929 332.621 612.902 332.889C614.168 333.159 615.415 333.513 616.634 333.949H616.701C618.194 334.486 619.777 335.314 620.247 336.822C620.476 337.659 620.468 338.542 620.225 339.375V339.375Z" fill="#3F3D56"/>
<path d="M699.653 247.62C699.608 248.777 699.466 250.068 698.57 250.792C697.79 251.291 696.864 251.509 695.943 251.411H695.741C693.076 251.411 690.366 251.262 687.843 252.09C685.925 252.725 684.163 253.889 682.162 254.12C679.408 254.434 676.817 252.926 674.376 251.613C672.078 250.375 669.718 249.254 667.307 248.254C665.724 247.605 662.492 247.187 661.731 245.456C661.47 244.636 661.25 243.804 661.074 242.963C660.948 242.587 660.796 242.22 660.618 241.866C660.17 241.109 659.886 240.268 659.782 239.395C659.785 238.525 660.085 237.683 660.633 237.007C661.242 236.286 661.988 235.693 662.827 235.261C663.666 234.83 664.582 234.568 665.523 234.492C667.404 234.346 669.296 234.446 671.151 234.79L689.53 237.432C690.949 237.634 692.374 237.835 693.77 238.179C695.096 238.409 696.346 238.957 697.413 239.776C699.586 241.597 699.765 244.799 699.653 247.62Z" fill="#3F3D56"/>
<path d="M683.499 252.396C681.259 257.121 682.871 262.711 682.468 267.935C682.13 270.871 681.464 273.76 680.483 276.548C679.617 279.324 678.751 282.108 677.646 284.802C676.72 287.041 675.623 289.28 674.764 291.564C673.398 295.206 672.525 299.304 669.755 302.013C668.486 308.118 666.874 314.79 661.85 318.492C657.483 321.716 651.399 321.828 646.3 319.88C641.202 317.932 637.059 314.201 633.408 310.178C629.758 306.155 626.496 301.774 622.576 298.028C620.33 295.92 617.943 293.967 615.432 292.184C612.904 290.348 610.304 288.621 607.631 287.004C605.995 285.885 604.161 285.087 602.227 284.653C600.638 284.349 598.993 284.669 597.636 285.549C597.327 285.759 597.049 286.01 596.807 286.295C596.143 287.225 595.638 288.259 595.314 289.355C592.179 297.52 583.766 301.714 577.047 307.282L570.911 312.365C570.075 313.059 569.149 314.074 569.56 315.081C569.842 315.591 570.298 315.983 570.844 316.186C574.412 317.947 578.6 318.656 581.541 321.343C582.616 322.328 583.646 323.627 585.102 323.702C585.87 323.656 586.627 323.488 587.341 323.201C588.465 322.898 589.643 322.858 590.784 323.086C591.925 323.314 592.998 323.803 593.918 324.515C594.441 325.025 595.047 325.441 595.71 325.746C596.265 325.893 596.843 325.929 597.412 325.851C599.002 325.739 600.689 325.597 602.115 326.306C603.541 327.015 604.713 328.687 606.377 328.806C607.191 328.866 608.161 328.597 608.938 328.672C609.152 328.679 609.361 328.737 609.548 328.84C609.735 328.944 609.894 329.091 610.013 329.269C610.187 329.679 610.305 330.111 610.364 330.553C610.67 331.605 611.7 332.247 612.372 333.113C613.402 334.441 613.551 336.247 613.447 337.927C613.109 343.178 610.768 348.098 606.907 351.674C605.811 352.794 604.413 353.572 602.884 353.913C602.118 354.073 601.321 353.989 600.605 353.672C599.89 353.354 599.292 352.82 598.897 352.144C598.731 351.563 598.479 351.01 598.151 350.502C596.949 349.181 594.254 350.585 593.149 349.174C592.462 348.293 592.955 346.883 592.298 345.972C591.641 345.062 590.059 345.226 588.842 345.174C587.416 345.099 586.095 344.427 584.714 344.077C582.474 343.494 580.13 343.711 577.838 343.554C575.934 343.386 574.043 343.087 572.18 342.658L562.684 340.718C556.638 339.487 550.569 338.24 544.813 336.038C542.611 335.203 540.394 334.173 538.841 332.381C537.589 330.807 536.785 328.925 536.512 326.933C535.161 318.97 542.327 312.163 543.231 304.14C543.552 301.214 544.724 298.453 545.828 295.736C547.854 290.88 549.874 286.021 551.89 281.16C552.216 280.255 552.642 279.389 553.159 278.578C554.018 277.539 554.987 276.596 556.048 275.764C558.877 273.198 560.906 269.871 561.893 266.181C561.966 265.771 562.138 265.384 562.393 265.054C562.658 264.833 562.949 264.645 563.259 264.495C563.792 264.148 564.193 263.631 564.398 263.029C564.602 262.427 564.598 261.773 564.386 261.173C564.85 261.135 565.284 260.932 565.61 260.6C565.936 260.269 566.132 259.831 566.163 259.367C566.109 258.963 566.134 258.552 566.238 258.158C566.417 257.77 566.865 257.576 567.126 257.233C567.552 256.673 567.402 255.889 567.335 255.188C567.29 254.744 567.29 254.296 567.335 253.852C567.499 252.271 568.206 250.797 569.336 249.68C571.12 247.926 573.658 248.381 576.121 247.963C578.579 247.433 580.979 246.666 583.288 245.672C589.765 243.12 596.585 241.543 603.526 240.992C610.5 240.444 617.506 241.559 623.965 244.246C624.905 244.627 625.791 245.129 626.6 245.739C627.175 246.182 627.646 246.745 627.981 247.389C628.257 248.179 628.596 248.945 628.996 249.68C629.795 250.769 631.303 251.12 632.176 252.15C633.05 253.18 633.125 254.919 633.849 256.195C634.886 258.016 637.29 258.86 638.007 260.838C638.231 261.464 638.26 262.151 638.425 262.8C638.828 264.427 640.037 265.711 641.105 266.995C645.018 271.675 647.524 277.368 648.331 283.414C648.57 279.63 651.115 276.279 654.303 274.19C655.161 273.63 656.154 273.01 656.326 271.995C656.542 270.712 655.296 269.57 655.378 268.264C655.468 267.626 655.726 267.023 656.124 266.517C657.547 264.456 659.108 262.493 660.797 260.643C661.716 259.636 662.746 258.404 662.365 257.076C662.074 256.083 661.059 255.501 660.499 254.635C660.172 254.119 660.005 253.518 660.018 252.908C660.031 252.297 660.225 251.704 660.573 251.202C661.096 250.493 661.925 249.978 662.178 249.135C662.47 248.142 661.82 247.068 662.022 246.045C662.294 245.226 662.836 244.524 663.559 244.052C664.55 243.151 665.676 242.41 666.896 241.858C668.867 241.112 671.062 241.388 673.152 241.679C676.646 242.164 680.565 242.911 682.536 245.836C683.797 247.665 684.439 250.441 683.499 252.396Z" fill="#65617D"/>
<path opacity="0.1" d="M699.653 247.62C699.608 248.777 699.466 250.068 698.57 250.792C697.79 251.291 696.864 251.509 695.943 251.411H695.741C696.047 249.859 697.936 248.971 698.264 247.396C698.321 246.912 698.277 246.422 698.135 245.956C697.994 245.49 697.759 245.058 697.443 244.687C695.846 242.53 693.278 241.336 690.725 240.463C683.512 237.99 675.785 237.412 668.285 238.783C666.245 239.115 664.261 239.726 662.387 240.597C661.767 240.985 661.168 241.409 660.596 241.866C660.148 241.109 659.863 240.268 659.76 239.395C659.763 238.525 660.063 237.683 660.611 237.007C661.22 236.286 661.965 235.693 662.804 235.261C663.644 234.83 664.56 234.568 665.5 234.492C667.382 234.346 669.274 234.446 671.129 234.79L689.508 237.432C690.926 237.634 692.352 237.835 693.748 238.179C695.074 238.409 696.324 238.957 697.391 239.776C699.586 241.597 699.765 244.799 699.653 247.62Z" fill="black"/>
<path opacity="0.1" d="M620.225 339.374C619.098 343.688 615.709 347.047 613.969 351.159C611.349 357.316 612.528 364.847 608.826 370.415C607.625 372.106 606.172 373.603 604.519 374.855C603.602 375.635 602.6 376.308 601.533 376.863C600.426 377.473 599.126 377.634 597.905 377.311C596.329 376.773 595.381 375.072 595.225 373.43C595.169 372.891 595.169 372.349 595.225 371.81L595.269 371.93C595.919 373.497 596.979 375.139 598.651 375.415C599.279 375.46 599.909 375.376 600.502 375.166C601.096 374.957 601.64 374.628 602.1 374.199C604.563 372.221 605.997 369.273 607.363 366.429C608.432 364.379 609.278 362.219 609.886 359.988C610.184 358.72 610.326 357.421 610.632 356.152C612.051 349.987 616.881 344.957 617.948 338.71C618.035 338.281 618.055 337.84 618.008 337.404C617.867 336.836 617.651 336.289 617.366 335.777C617.106 335.199 616.916 334.593 616.798 333.971C618.291 334.508 619.874 335.337 620.344 336.844C620.537 337.683 620.496 338.558 620.225 339.374Z" fill="black"/>
<path opacity="0.1" d="M608.953 328.672C608.262 330.478 607.099 332.066 605.586 333.27C603.461 334.888 600.973 335.964 598.337 336.404C597.111 336.717 595.824 336.702 594.605 336.359C592.948 335.785 591.753 334.232 590.059 333.785C588.849 333.456 587.55 333.747 586.326 333.568C584.124 333.262 582.414 331.583 580.638 330.239C575.196 326.149 568.052 324.828 562.61 320.739C562.367 320.59 562.167 320.382 562.027 320.134C561.923 319.866 561.885 319.577 561.915 319.291C561.936 316.81 562.493 314.363 563.55 312.118C564.416 310.552 565.447 309.084 566.626 307.737C571.501 301.767 576.398 295.751 582.235 290.713C584.684 288.601 587.356 286.631 590.447 285.676C592.164 285.146 595.553 284.646 597.643 285.541C597.335 285.752 597.056 286.003 596.814 286.288C596.15 287.217 595.645 288.252 595.321 289.348C592.179 297.52 583.766 301.714 577.047 307.282L570.911 312.365C570.075 313.059 569.149 314.074 569.56 315.081C569.842 315.591 570.298 315.983 570.844 316.186C574.412 317.947 578.6 318.656 581.541 321.343C582.616 322.328 583.646 323.627 585.102 323.702C585.87 323.656 586.627 323.488 587.341 323.201C588.465 322.898 589.643 322.858 590.784 323.086C591.925 323.314 592.998 323.803 593.918 324.515C594.441 325.025 595.047 325.441 595.71 325.746C596.265 325.893 596.843 325.929 597.412 325.851C599.002 325.739 600.689 325.597 602.115 326.306C603.541 327.015 604.712 328.687 606.377 328.806C607.206 328.866 608.176 328.583 608.953 328.672Z" fill="black"/>
<path d="M540.297 227.379C538.879 228.29 537.371 229.32 536.788 230.902C536.311 232.193 536.534 233.671 535.96 234.925C535.385 236.178 534.093 237.052 533.81 238.395C533.608 239.373 534.004 240.403 533.81 241.38C533.641 241.889 533.504 242.407 533.399 242.933C533.325 244.045 534.28 244.948 535.213 245.567C537.2 246.859 539.462 247.667 541.818 247.926C544.173 248.186 546.557 247.889 548.777 247.06C550.77 246.314 552.569 245.097 554.48 244.142C556.344 243.069 558.476 242.551 560.624 242.649C561.856 242.784 563.035 243.231 564.267 243.396C564.875 243.516 565.504 243.486 566.098 243.309C566.693 243.132 567.235 242.814 567.679 242.381C568.059 241.855 568.314 241.25 568.425 240.612C569.463 236.514 568.992 232.171 568.007 228.051C567.022 223.931 565.529 219.968 564.476 215.871C563.73 212.833 563.155 209.721 561.908 206.847C560.661 203.974 558.564 201.302 555.63 200.205C555.399 200.092 555.136 200.057 554.884 200.108C554.695 200.187 554.529 200.31 554.398 200.466C552.078 202.925 550.329 205.866 549.277 209.079C548.105 212.654 547.784 216.445 546.709 220.035C546.246 221.528 545.649 223.528 544.47 224.67C543.29 225.812 541.633 226.521 540.297 227.379Z" fill="#3F3D56"/>
<path opacity="0.1" d="M568.447 240.589C568.322 241.23 568.054 241.835 567.663 242.358C567.221 242.793 566.678 243.112 566.084 243.288C565.489 243.463 564.86 243.49 564.252 243.366C563.028 243.216 561.848 242.761 560.617 242.619C558.468 242.52 556.336 243.038 554.473 244.112C552.562 245.067 550.74 246.254 548.762 247.023C545.868 248.12 542.707 248.3 539.707 247.538C538.114 247.137 536.6 246.471 535.228 245.567C534.288 244.955 533.339 244.075 533.414 242.933C533.519 242.41 533.656 241.894 533.825 241.388C534.019 240.41 533.631 239.38 533.825 238.403C534.108 237.059 535.407 236.164 535.975 234.925C536.542 233.686 536.325 232.2 536.796 230.909C537.378 229.32 538.893 228.297 540.312 227.379C541.73 226.461 543.417 225.76 544.552 224.648C544.698 224.474 544.831 224.29 544.948 224.095C545.766 222.834 546.366 221.443 546.724 219.983C547.822 216.386 548.12 212.602 549.285 209.019C550.341 205.809 552.092 202.871 554.413 200.414C554.537 200.254 554.702 200.13 554.891 200.056C555.143 200.004 555.405 200.036 555.637 200.145C558.564 201.25 560.661 203.922 561.915 206.795C563.17 209.669 563.7 212.766 564.483 215.811C565.529 219.908 567.029 223.886 568.014 227.999C569 232.111 569.485 236.484 568.447 240.589Z" fill="black"/>
<path opacity="0.1" d="M590.649 149.566C587.138 150.681 583.34 150.46 579.983 148.944C576.626 147.429 573.948 144.726 572.464 141.356C572.522 140.657 572.622 139.962 572.762 139.274C573.509 135.841 576.704 137.095 579.227 138.005C582.264 138.992 585.201 140.264 587.998 141.804C588.851 142.243 589.591 142.871 590.163 143.64C591.268 145.29 590.828 147.484 590.649 149.566Z" fill="black"/>
<path d="M586.14 149.521C594.385 149.521 601.07 142.838 601.07 134.594C601.07 126.351 594.385 119.668 586.14 119.668C577.894 119.668 571.21 126.351 571.21 134.594C571.21 142.838 577.894 149.521 586.14 149.521Z" fill="#BE6F72"/>
<path opacity="0.1" d="M626.652 246.142C626.652 247.381 624.973 247.777 623.726 247.709C619.247 247.448 614.865 246.217 610.431 246.59C604.825 247.097 599.674 250.195 594.053 250.478C591.888 250.59 589.686 250.269 587.551 250.665C584.788 251.18 582.325 252.859 579.511 253.098C577.07 253.307 574.658 252.389 572.217 252.486C570.511 252.588 568.847 253.062 567.343 253.874C567.506 252.294 568.213 250.819 569.343 249.702C571.127 247.948 573.666 248.404 576.129 247.986C578.586 247.455 580.986 246.688 583.295 245.694C589.773 243.143 596.593 241.566 603.533 241.015C610.504 240.461 617.506 241.568 623.965 244.246C624.905 244.627 625.791 245.129 626.6 245.739C626.641 245.869 626.658 246.006 626.652 246.142V246.142Z" fill="black"/>
<path d="M579.234 161.851L573.188 159.612L570.635 158.671C569.594 158.235 568.499 157.944 567.38 157.806C564.454 157.582 561.699 159.53 560.139 162.015C558.579 164.5 557.989 167.463 557.489 170.351C556.802 174.302 556.22 178.268 555.742 182.248C555.228 185.843 554.966 189.469 554.958 193.1C555.13 202.339 557.086 211.452 559.236 220.446C560.289 224.433 561.084 228.484 561.617 232.574C561.796 234.26 561.878 235.954 562.057 237.649C562.252 239.552 562.565 241.433 562.879 243.321L564.678 254.046C566.917 252.456 569.463 251.06 572.217 250.978C574.658 250.889 577.077 251.799 579.511 251.59C582.31 251.359 584.788 249.68 587.551 249.165C589.686 248.769 591.888 249.082 594.06 248.978C599.674 248.694 604.832 245.59 610.431 245.09C614.873 244.687 619.284 245.94 623.733 246.202C624.973 246.276 626.652 245.881 626.652 244.634C626.652 243.769 625.786 243.194 625.032 242.761C621.478 240.622 618.096 238.209 614.917 235.544C611.976 233.215 608.99 230.827 606.967 227.678C602.092 220.102 603.765 209.855 599.607 201.862C596.225 195.369 599.607 186.86 599.607 179.539C599.607 175.889 599.607 172.195 598.748 168.65C598.211 166.667 597.543 164.722 596.747 162.828L593.844 155.477C593.783 155.262 593.664 155.068 593.5 154.917C593.305 154.783 593.073 154.712 592.836 154.716C591.092 154.611 589.372 155.162 588.013 156.261C586.647 157.373 585.774 158.97 584.43 160.127C582.96 161.403 581.063 162.522 579.234 161.851Z" fill="#E3E8F4"/>
<path d="M588.991 157.612C589.469 155.567 589.984 153.44 591.35 151.842C592.716 150.245 595.21 149.402 596.971 150.544C598.972 151.842 599.054 154.843 600.764 156.514C602.257 157.947 604.496 158.059 606.527 158.246C610.178 158.578 613.764 159.422 617.179 160.754C617.845 160.96 618.452 161.324 618.948 161.813C619.882 162.873 619.695 164.5 620.158 165.821C620.792 167.523 622.547 168.605 623.226 170.299C623.972 172.18 623.226 174.285 622.599 176.218C621.472 179.688 620.762 183.293 619.665 186.778C618.568 190.264 617.007 193.697 614.44 196.324C613.305 197.488 611.618 198.563 610.125 197.869L609.55 202.011C609.382 202.886 609.382 203.786 609.55 204.661C609.637 205.099 609.845 205.503 610.152 205.828C610.458 206.153 610.85 206.385 611.282 206.497C611.394 207.139 612.073 207.445 612.625 207.795C613.033 208.074 613.382 208.431 613.65 208.846C613.919 209.26 614.103 209.724 614.191 210.21C614.279 210.695 614.27 211.194 614.164 211.677C614.058 212.159 613.857 212.615 613.574 213.02C613.103 213.654 612.409 214.154 612.185 214.908C611.849 215.998 612.648 217.147 613.618 217.744C614.589 218.341 615.731 218.617 616.716 219.192C618.762 220.371 619.859 222.692 620.561 224.946C621.083 226.648 621.516 228.491 622.8 229.73C623.293 230.2 623.883 230.559 624.353 231.051C625.167 232.013 625.637 233.218 625.689 234.477C625.894 236.037 625.551 237.619 624.719 238.955C623.226 241.089 620.441 241.724 618 242.687C614.036 244.314 610.774 247.224 607.281 249.702C605.858 250.848 604.181 251.636 602.391 252.001C599.972 252.322 597.591 251.255 595.157 251.158C593.701 251.171 592.252 251.362 590.843 251.725L586.364 252.695C586.602 249.225 584.691 245.747 583.624 242.44C581.608 236.216 581.235 229.559 581.713 223.036C582.191 216.513 583.519 210.079 584.833 203.676C585.751 199.198 585.662 194.518 587.073 190.167C588.394 185.98 590.283 181.957 590.977 177.599C592.112 170.546 587.394 164.567 588.991 157.612Z" fill="#3F3D56"/>
<path d="M622.95 171.411C623.362 172.17 623.651 172.988 623.808 173.837C624.153 175.152 624.8 176.368 625.697 177.389C626.448 178.052 627.115 178.804 627.683 179.628C628.369 180.927 628.108 182.509 628.429 183.927C628.802 185.472 629.885 186.816 630.042 188.405C630.046 188.861 630.088 189.315 630.168 189.764C630.654 191.57 633.311 192.003 633.901 193.809C634.297 194.981 633.617 196.257 633.744 197.488C633.837 197.869 633.86 198.264 633.811 198.653C633.643 199.092 633.346 199.472 632.96 199.742C630.49 202.102 628.779 205.145 628.048 208.482C627.329 211.801 626.951 215.184 626.921 218.58L624.002 214.721C623.693 214.253 623.298 213.848 622.838 213.527C622.465 213.303 622.032 213.191 621.651 212.967C620.546 212.34 620.113 211.012 619.687 209.818C618.505 206.512 616.735 203.448 614.462 200.772C613.275 199.377 611.894 197.973 611.633 196.16C611.554 195.327 611.6 194.487 611.767 193.667C612.514 188.779 613.312 183.771 615.694 179.434C616.806 177.404 618.247 175.568 619.314 173.508C620.031 172.143 621.039 168.59 622.95 171.411Z" fill="#3F3D56"/>
<path d="M549.307 176.106C549.321 176.734 549.161 177.354 548.844 177.897C548.559 178.227 548.187 178.472 547.771 178.604C547.354 178.736 546.909 178.749 546.485 178.643C545.635 178.43 544.835 178.055 544.126 177.539C542.046 176.225 539.966 174.909 537.886 173.591C536.724 172.891 535.605 172.123 534.534 171.292C532.896 169.91 531.412 168.356 530.107 166.657C526.479 162.179 523.269 157.32 519.23 153.223C518.133 152.103 516.991 151.029 515.931 149.857C514.482 148.163 513.15 146.373 511.945 144.498C510.78 142.774 509.571 140.864 509.772 138.804C509.892 137.639 510.452 136.565 510.616 135.408C510.78 134.251 510.34 132.841 509.22 132.527C509.088 132.494 508.953 132.471 508.817 132.46C508.596 132.436 508.378 132.389 508.167 132.318C507.13 131.885 507.286 130.281 508.033 129.437C508.779 128.594 509.884 128.124 510.564 127.198C510.88 126.649 511.234 126.123 511.624 125.623C512.124 125.195 512.721 124.895 513.363 124.75C517.669 123.482 522.224 123.31 526.613 124.25C527.36 124.414 528.211 124.713 528.435 125.437C528.524 125.79 528.524 126.159 528.435 126.512C528.106 127.983 527.916 129.482 527.868 130.99C527.866 131.304 527.884 131.618 527.92 131.93C528.271 135.094 530.324 137.774 532.324 140.244C534.698 143.185 537.109 146.103 539.528 149.014C540.836 150.7 542.298 152.262 543.895 153.678C545.388 154.917 547.321 155.917 548.486 157.507C549.434 158.791 549.128 160.545 549.233 162.089C549.58 166.754 549.605 171.437 549.307 176.106V176.106Z" fill="#3F3D56"/>
<path d="M644.113 207.243C644.85 206.526 645.516 205.739 646.099 204.892C646.726 203.843 647.227 202.723 647.592 201.556L651.921 189.279C652.608 187.338 653.295 185.39 654.161 183.502C655.057 181.464 656.117 179.502 657.095 177.531C659.61 172.346 661.555 166.903 662.895 161.298C663.131 160.528 663.209 159.719 663.126 158.918C662.917 157.626 661.939 156.619 661.006 155.701C660.068 154.688 658.999 153.804 657.826 153.074C657.238 152.708 656.582 152.463 655.898 152.352C655.213 152.242 654.514 152.269 653.84 152.432C651.929 152.992 650.727 154.947 650.287 156.91C649.846 158.873 650.01 160.88 649.824 162.881C649.555 165.747 648.57 168.515 648.331 171.389C648.204 173.053 648.331 174.732 648.129 176.389C647.762 178.565 647.003 180.656 645.89 182.562C643.464 187.1 640.187 191.129 636.237 194.428C635.155 195.227 634.182 196.163 633.341 197.212C632.639 198.262 632.163 199.446 631.945 200.69C631.449 202.584 631.664 204.594 632.55 206.34C633.766 208.415 636.103 209.325 638.335 209.788C641.351 210.415 642.045 209.385 644.113 207.243Z" fill="#BE6F72"/>
<path d="M586.229 112.965C586.872 111.758 587.856 110.767 589.059 110.115C590.262 109.463 591.63 109.18 592.992 109.301C594.365 109.544 595.642 110.166 596.679 111.098C597.716 112.029 598.472 113.232 598.86 114.57C599.211 115.682 599.353 116.914 599.965 117.869C600.891 119.309 602.607 119.727 603.891 120.772C604.658 121.484 605.275 122.342 605.706 123.296C606.136 124.249 606.372 125.279 606.4 126.325C606.471 128.461 606.134 130.592 605.407 132.602C605.098 133.459 604.849 134.337 604.66 135.229C604.511 136.094 604.496 136.975 604.362 137.841C604.196 138.963 603.808 140.042 603.219 141.012C602.631 141.982 601.854 142.825 600.935 143.491C600.674 143.704 600.347 143.822 600.01 143.827C599.427 143.759 599.069 143.08 598.853 142.468C597.666 139.042 597.949 134.856 595.762 132.124C594.767 131.022 593.565 130.127 592.224 129.489C591.677 129.137 591.061 128.905 590.417 128.81C589.47 128.861 588.56 129.194 587.804 129.765C586.229 130.822 584.48 131.595 582.638 132.049C581.719 132.267 580.763 132.277 579.84 132.078C578.916 131.879 578.049 131.477 577.301 130.9C576.271 130.049 575.517 128.773 574.375 128.109C573.232 127.444 572.038 127.482 570.911 127.026C570.193 126.721 569.553 126.256 569.042 125.666C568.531 125.076 568.161 124.377 567.961 123.623C567.761 122.868 567.736 122.078 567.887 121.313C568.039 120.547 568.363 119.826 568.836 119.205C569.582 118.309 570.687 117.802 571.351 116.809C572.21 115.525 572.135 113.764 572.546 112.227C572.789 111.254 573.26 110.353 573.921 109.599C574.582 108.845 575.413 108.259 576.345 107.89C577.25 107.583 578.22 107.524 579.155 107.72C580.09 107.916 580.955 108.359 581.661 109.002C582.407 109.674 583.004 110.54 583.736 111.241C584.458 111.933 585.342 112.431 586.307 112.692C587.273 112.953 588.288 112.967 589.26 112.734" fill="#3F3D56"/>
<path opacity="0.1" d="M598.502 222.819C598.067 223.206 597.759 223.715 597.618 224.279C597.477 224.844 597.509 225.437 597.71 225.983C597.875 226.334 605.579 224.849 606.392 224.737C608.423 224.446 611.983 224.588 613.35 222.729C615.783 219.438 608.243 220.169 606.862 220.289C604.235 220.513 600.502 220.871 598.502 222.819Z" fill="black"/>
<path d="M528.42 126.541C528.091 128.013 527.901 129.512 527.853 131.019C525.613 131.475 523.284 130.728 521.134 129.982L514.961 127.877C514.585 127.637 514.132 127.549 513.694 127.631C513.256 127.713 512.865 127.958 512.602 128.318C511.609 129.348 510.243 131.303 508.869 132.46C508.648 132.436 508.43 132.389 508.22 132.318C507.182 131.885 507.339 130.281 508.085 129.437C508.832 128.594 509.937 128.124 510.616 127.198C510.932 126.649 511.286 126.123 511.676 125.623C512.176 125.195 512.773 124.895 513.415 124.75C517.721 123.482 522.276 123.31 526.666 124.25C527.412 124.414 528.263 124.713 528.487 125.437C528.56 125.805 528.537 126.185 528.42 126.541Z" fill="#3F3D56"/>
<path opacity="0.1" d="M528.42 126.541C528.091 128.013 527.901 129.512 527.853 131.019C525.613 131.475 523.284 130.728 521.134 129.982L514.961 127.877C514.585 127.637 514.132 127.549 513.694 127.631C513.256 127.713 512.865 127.958 512.602 128.318C511.609 129.348 510.243 131.303 508.869 132.46C508.648 132.436 508.43 132.389 508.22 132.318C507.182 131.885 507.339 130.281 508.085 129.437C508.832 128.594 509.937 128.124 510.616 127.198C510.932 126.649 511.286 126.123 511.676 125.623C512.176 125.195 512.773 124.895 513.415 124.75C517.721 123.482 522.276 123.31 526.666 124.25C527.412 124.414 528.263 124.713 528.487 125.437C528.56 125.805 528.537 126.185 528.42 126.541Z" fill="black"/>
<path opacity="0.1" d="M584.893 268.234C585.968 268.592 587.132 269.114 587.498 270.189L578.854 267.995L574.375 266.853C573.583 266.651 570.747 266.42 570.224 265.8C569.478 264.89 572.128 265.517 572.605 265.584C574.054 265.8 575.502 266.024 576.943 266.286C579.66 266.771 582.273 267.569 584.893 268.234Z" fill="black"/>
<path opacity="0.1" d="M588.245 275.884C587.498 275.384 585.356 275.443 584.438 275.227C583.094 274.906 581.773 274.48 580.451 274.07C577.771 273.197 575.114 272.204 572.359 271.562C571.852 271.45 570.12 271.42 570.202 270.779C570.284 270.137 571.934 269.913 572.344 269.883C574.785 269.704 577.831 270.846 580.1 271.659C582.993 272.695 585.732 274.116 588.245 275.884V275.884Z" fill="black"/>
<path opacity="0.1" d="M582.765 261.412C580.026 260.666 577.54 258.964 574.718 258.636C573.983 258.664 573.259 258.443 572.665 258.009C572.334 257.683 572.103 257.268 572.001 256.815C573.89 256.718 576.084 257.516 577.801 258.27C578.746 258.675 579.655 259.16 580.519 259.718C581.146 260.099 582.086 261.196 582.765 261.412Z" fill="black"/>
<path d="M634.991 194.585C634.528 197.688 635.198 200.854 636.878 203.503C638.559 206.153 641.138 208.108 644.143 209.012C643.777 210.781 641.948 211.758 640.657 213.02C638.835 214.789 637.895 217.438 635.745 218.781C633.349 220.274 630.265 219.692 627.533 219.065C627.285 219.037 627.056 218.917 626.891 218.729C626.835 218.64 626.795 218.541 626.772 218.438C625.869 215.132 625.279 211.602 626.204 208.288C626.951 205.467 628.743 203.064 630.176 200.571C631.609 198.078 631.744 195.406 634.991 194.585Z" fill="#3F3D56"/>
<path d="M568.246 151.79C565.356 152 562.551 152.855 560.034 154.29C558.362 155.246 556.645 156.529 554.734 156.298C553.607 156.171 552.495 155.552 551.397 155.85C550.779 156.1 550.203 156.442 549.688 156.865C549.427 157.073 549.116 157.21 548.787 157.262C548.457 157.314 548.119 157.281 547.807 157.164L547.06 167.493C546.776 171.419 546.5 175.427 547.441 179.255C547.926 181.211 548.994 182.987 549.113 184.972C549.232 186.958 549.053 188.995 549.195 191.003C549.329 192.861 549.74 194.69 549.845 196.548C550.054 200.056 549.188 203.534 548.352 206.944C547.09 211.975 546.329 217.117 543.873 221.67C543.186 222.931 542.38 224.215 542.38 225.648C542.38 225.827 542.38 225.998 542.424 226.17C541.678 226.581 540.984 226.969 540.349 227.372C538.931 228.29 537.415 229.312 536.833 230.902C536.363 232.193 536.579 233.671 536.012 234.917C535.445 236.164 534.146 237.052 533.862 238.395C533.66 239.373 534.049 240.403 533.862 241.38C533.693 241.886 533.556 242.402 533.451 242.925C533.377 244.045 534.325 244.948 535.265 245.56C536.637 246.464 538.151 247.13 539.744 247.53L544.201 229.842C548.264 222.331 551.645 214.47 554.301 206.355C555.061 203.702 556.037 201.116 557.22 198.623C558.065 197.212 558.813 195.746 559.46 194.234C560.139 192.354 560.206 190.316 560.535 188.331C560.924 186.014 561.511 183.734 562.289 181.517C563.095 179.121 564.028 176.733 564.192 174.218C564.439 170.62 563.132 166.821 564.521 163.493C565.11 162.247 565.877 161.093 566.798 160.067C568.724 157.709 570.478 155.238 572.404 152.88C571.404 151.813 569.739 151.701 568.246 151.79Z" fill="#3F3D56"/>
<g opacity="0.1">
<path opacity="0.1" d="M589.282 110.51L588.349 110.577L588.245 110.652C588.594 110.638 588.942 110.59 589.282 110.51V110.51Z" fill="black"/>
<path opacity="0.1" d="M606.362 126.004C606.207 127.488 605.886 128.95 605.407 130.363C605.098 131.221 604.849 132.098 604.66 132.99C604.511 133.856 604.496 134.736 604.362 135.602C604.196 136.725 603.808 137.803 603.22 138.773C602.631 139.743 601.854 140.586 600.935 141.252C600.674 141.465 600.347 141.584 600.01 141.588C599.427 141.521 599.069 140.842 598.853 140.23C597.666 136.804 597.949 132.617 595.762 129.885C594.767 128.783 593.565 127.888 592.224 127.251C591.677 126.898 591.061 126.666 590.417 126.572C589.47 126.622 588.561 126.955 587.804 127.527C586.229 128.583 584.481 129.356 582.639 129.811C581.719 130.028 580.763 130.038 579.84 129.839C578.916 129.64 578.049 129.238 577.301 128.661C576.271 127.81 575.517 126.534 574.375 125.87C573.233 125.206 572.038 125.243 570.911 124.788C570.207 124.487 569.58 124.032 569.075 123.456C568.571 122.879 568.204 122.197 568 121.459C567.973 121.366 567.953 121.271 567.94 121.176C567.753 122.009 567.774 122.875 568 123.698C568.204 124.436 568.571 125.118 569.075 125.695C569.58 126.271 570.207 126.726 570.911 127.027C572.038 127.482 573.307 127.49 574.375 128.109C575.442 128.728 576.271 130.049 577.301 130.9C578.049 131.477 578.916 131.879 579.84 132.078C580.763 132.277 581.719 132.267 582.639 132.05C584.481 131.595 586.229 130.822 587.804 129.766C588.561 129.194 589.47 128.861 590.417 128.811C591.061 128.906 591.677 129.137 592.224 129.49C593.548 130.14 594.732 131.042 595.71 132.147C597.897 134.878 597.613 139.065 598.8 142.491C599.017 143.11 599.375 143.782 599.957 143.849C600.316 143.851 600.663 143.724 600.935 143.491C601.858 142.823 602.638 141.977 603.228 141.003C603.818 140.029 604.206 138.946 604.369 137.819C604.504 136.953 604.519 136.072 604.668 135.207C604.856 134.315 605.106 133.437 605.414 132.58C606.142 130.57 606.479 128.439 606.407 126.303C606.392 126.213 606.377 126.109 606.362 126.004Z" fill="black"/>
</g>
<path d="M559.131 185.89L558.623 192.704C558.549 193.63 556.78 215.662 543.731 241.41C532.533 263.494 510.743 292.258 469.603 308.424C466.393 309.693 463.061 310.877 459.607 311.976L455.755 299.886C465.426 296.843 474.741 292.769 483.54 287.735C504.509 275.63 520.813 258.352 532.182 236.119C538.214 224.281 542.513 211.638 544.948 198.578H498.142V185.89H559.131Z" fill="#E1AA47"/>
<path opacity="0.1" d="M464.564 308.432C505.696 292.266 527.494 263.509 538.684 241.425C551.733 215.677 553.51 193.66 553.577 192.719L554.085 185.905H559.31L558.803 192.719C558.735 193.645 556.959 215.677 543.91 241.425C532.712 263.509 510.922 292.266 469.79 308.432C466.58 309.7 463.245 310.887 459.786 311.992L459.279 310.402C461.08 309.76 462.842 309.103 464.564 308.432Z" fill="white"/>
<path d="M382.21 299.886L378.358 311.976C374.899 310.872 371.565 309.685 368.355 308.416C327.222 292.251 305.424 263.494 294.234 241.41C281.185 215.662 279.409 193.645 279.342 192.704L278.834 185.89H339.793V198.578H292.98C295.427 211.64 299.739 224.283 305.783 236.119C317.152 258.352 333.448 275.63 354.417 287.728C363.218 292.767 372.536 296.843 382.21 299.886V299.886Z" fill="#E1AA47"/>
<path opacity="0.1" d="M373.386 308.432C332.254 292.266 310.456 263.509 299.266 241.425C286.217 215.677 284.44 193.66 284.373 192.719L283.865 185.905H278.64L279.148 192.719C279.215 193.645 280.991 215.677 294.04 241.425C305.238 263.509 327.028 292.266 368.161 308.432C371.37 309.7 374.705 310.887 378.164 311.992L378.671 310.402C376.875 309.76 375.113 309.103 373.386 308.432Z" fill="white"/>
<path d="M489.4 416.762V485.179H348.557V416.762L353.036 410.791C398.678 394.596 407.927 352.361 409.771 335.65C410.045 333.341 410.202 331.019 410.241 328.694H427.657C427.696 331.019 427.853 333.341 428.127 335.65C430.001 352.361 439.25 394.611 484.861 410.791L489.4 416.762Z" fill="#E1AA47"/>
<path opacity="0.1" d="M489.4 416.762H348.557V425.345H489.4V416.762Z" fill="black"/>
<path opacity="0.1" d="M360.501 410.791C406.143 394.596 415.392 352.361 417.236 335.65C417.51 333.341 417.667 331.019 417.706 328.694H410.241C410.202 331.019 410.045 333.341 409.771 335.65C407.897 352.361 398.648 394.611 353.036 410.791L348.557 416.762V485.179H356.022V416.762L360.501 410.791Z" fill="white"/>
<path opacity="0.1" d="M327.163 185.89H339.793V198.578H328.282C327.83 194.398 327.456 190.169 327.163 185.89Z" fill="black"/>
<path opacity="0.1" d="M382.21 299.886L378.358 311.977C374.899 310.872 371.565 309.685 368.355 308.417C363.074 301.97 358.408 295.043 354.417 287.728C363.218 292.768 372.536 296.844 382.21 299.886Z" fill="black"/>
<path opacity="0.1" d="M455.748 299.886C465.418 296.843 474.734 292.77 483.533 287.735C479.54 295.052 474.874 301.98 469.596 308.431C466.386 309.7 463.054 310.884 459.6 311.984L455.748 299.886Z" fill="black"/>
<path opacity="0.1" d="M510.787 185.89C510.494 190.169 510.121 194.398 509.668 198.578H498.164V185.89H510.787Z" fill="black"/>
<path opacity="0.1" d="M428.157 335.65C422.095 336.824 415.863 336.824 409.801 335.65C410.075 333.341 410.232 331.019 410.271 328.694H427.687C427.726 331.019 427.883 333.341 428.157 335.65V335.65Z" fill="black"/>
<path d="M328.656 164.873C328.977 258.957 369.288 335.038 418.982 335.038C468.677 335.038 508.981 258.957 509.309 164.873H328.656Z" fill="#E1AA47"/>
<path opacity="0.1" d="M344.705 164.873H328.656C328.977 258.957 369.288 335.038 418.983 335.038C421.672 335.033 424.356 334.806 427.007 334.359C381.068 326.687 345.011 253.837 344.705 164.873Z" fill="white"/>
<path d="M466.878 442.951H371.079V467.58H466.878V442.951Z" fill="#3F3D56"/>
<path opacity="0.1" d="M375.558 446.31H466.878V442.951H371.079V467.58H375.558V446.31Z" fill="white"/>
<path d="M235.319 157.508C233.594 156.933 223.442 148.903 222.673 145.268C221.904 141.633 228.04 107.772 228.04 107.772C228.04 107.772 227.473 107.772 226.547 107.66V107.115L227.809 62.6337C227.809 62.6337 232.982 32.7802 223.211 34.5192C213.439 36.2581 219.568 62.6337 219.568 62.6337C219.568 62.6337 218.455 76.023 217.672 80.0383C216.925 83.9118 213.506 99.6893 215.835 104.593C215.92 104.767 216.015 104.936 216.119 105.1V105.1C216.119 105.1 216.507 121.93 212.289 124.229C208.266 126.416 206.593 137.424 206.452 138.409L206.235 138.32C205.034 137.568 203.979 136.605 203.122 135.476C203.033 135.364 202.965 135.245 202.883 135.125C205.63 132.036 207.11 128.025 207.028 123.893C206.947 119.76 205.309 115.811 202.443 112.832C201.11 111.448 199.546 110.307 197.822 109.459C197.772 108.033 197.434 106.632 196.829 105.339C194.888 101.189 184.139 95.7636 176.502 95.6367C172.978 95.5322 170.089 96.5323 169.037 99.2863C168.499 100.682 168.664 102.272 168.44 103.72C167.992 106.705 166.073 109.041 163.61 110.899C162.615 109.789 161.54 108.754 160.392 107.802C157.899 105.891 152.927 99.5923 152.927 99.5923C152.927 99.5923 137.407 83.5237 136.258 79.1203C135.108 74.7169 119.603 48.2742 116.154 52.8791C112.706 57.484 128.031 77.553 128.031 77.553C128.031 77.553 130.943 84.8447 133.182 87.3076C135.422 89.7705 152.591 114.698 152.591 114.698L153.412 116.4C149.784 118.31 146.47 120.743 145.298 124.535C143.581 130.117 147.336 135.73 149.934 140.954C154.995 151.149 155.719 164.15 149.187 173.465C143.335 181.689 133.182 185.6 123.679 189.018C128.269 192.621 133.97 194.514 139.804 194.37C137.609 200.728 129.83 202.833 123.201 204.012C126.68 207.356 131.659 208.572 136.437 209.311C138.777 209.71 141.148 209.897 143.521 209.871H144.104L144.686 209.826C145.495 209.773 146.3 209.67 147.097 209.52C150.546 208.819 153.898 206.938 155.659 203.893C157.152 201.288 157.675 197.736 160.385 196.43C161.09 196.111 161.851 195.931 162.624 195.9H162.542C163.05 195.9 163.572 195.9 164.08 195.9L175.375 196.012C175.845 196.012 176.33 196.012 176.815 196.012C180.003 195.937 183.407 195.385 185.027 192.75C185.693 191.471 186.044 190.05 186.05 188.608C186.289 185.033 186.05 181.354 186.147 177.749C187.11 184.309 188.117 194.534 185.721 198.31C183.774 201.172 181.415 203.73 178.719 205.901C178.041 206.47 177.421 207.105 176.868 207.796C176.502 208.057 176.285 208.199 176.285 208.199L176.054 208.893C175.203 210.183 174.587 211.613 174.232 213.118C174.102 213.504 174.054 213.913 174.091 214.319C174.352 214.849 172.224 217.036 172.844 217.954C167.529 224.186 166.521 233.627 166.521 233.627L156.817 248.36C151.83 261.458 144.365 262.801 144.365 262.801C144.365 262.801 126.829 251.039 126.352 250.464C125.874 249.89 119.17 247.016 119.17 247.016C118.38 245.63 117.173 244.529 115.722 243.867C113.422 242.911 113.228 239.389 113.228 239.389C112.945 231.067 108.055 230.433 108.055 230.433C104.113 230.097 101.105 230.798 98.7908 232.082L98.0891 232.134C94.7 232.41 90.6241 232.716 86.145 233.015C73.6859 233.836 70.7223 241.904 70.7223 241.904C70.7223 241.904 69.1919 243.628 71.2 245.494C73.2081 247.36 86.0629 245.494 86.6079 245.449C85.6282 245.555 84.6375 245.487 83.6816 245.247C85.7046 245.173 88.4891 245.098 90.8629 245.098H91.4378C91.2883 246.356 91.216 247.623 91.2213 248.89C91.2213 251.278 97.8278 252.808 97.8278 252.808L117.946 270.72C117.946 270.72 130.592 276.37 138.639 284.497C146.686 292.625 153.801 285.609 153.801 285.609C162.318 283.505 186.826 253.883 186.848 253.853C186.848 254.719 187.363 283.527 188.341 289.311C188.38 289.605 188.453 289.893 188.558 290.169C189.707 292.655 188.17 299.446 187.505 302.312C187.082 304.711 186.919 307.148 187.02 309.582C187.02 309.582 177.831 344.66 178.592 347.742C179.353 350.824 173.613 365.147 173.613 365.147V377.088L174.613 377.036C174.483 377.228 174.363 377.427 174.255 377.633L174.188 377.76C174.188 377.76 180.316 379.096 184.437 378.715C188.558 378.334 195.635 381.887 195.635 381.887C195.635 381.887 198.031 383.021 205.406 383.499C212.782 383.977 212.782 380.245 212.782 380.245C211.938 375.162 200.285 373.461 199.927 373.409C198.987 372.819 198.106 372.177 197.382 371.625L197.232 371.505C197.281 371.393 197.323 371.279 197.359 371.162C198.606 366.087 191.708 363.885 191.708 363.885V362.646C196.187 360.348 197.075 344.57 197.075 344.57C197.075 344.57 203.794 325.061 204.735 321.807C205.675 318.553 204.735 313.679 204.735 313.679L205.406 309.47C205.406 309.47 206.847 306.604 206.847 306.029C207.034 304.573 207.594 303.189 208.475 302.014C209.527 300.767 207.325 297.805 207.325 297.805L209.243 292.834V287.378L213.723 267.585C213.723 267.585 218.418 244.531 216.791 236.986C215.163 229.44 218.709 225.604 218.709 225.604C218.39 225.772 218.061 225.921 217.724 226.052C218.172 225.016 218.558 223.954 218.881 222.872L228.959 224.119V224.268H232.594C232.594 224.268 231.445 210.088 231.445 204.371C231.445 198.654 235.319 178.137 235.319 178.137C235.319 178.137 237.043 158.083 235.319 157.508ZM190.581 140.954C190.581 141.514 190.529 142.096 190.491 142.693L190.29 142.999L189.917 142.686L189.461 143.395L189.327 143.462C188.341 142.954 187.834 140.051 187.125 140.678L187.028 140.76C186.871 140.581 186.714 140.529 186.55 140.678L186.4 140.805C186.4 140.589 186.4 140.365 186.4 140.141C187.766 140.492 189.171 140.67 190.581 140.671C190.588 140.768 190.581 140.865 190.581 140.954ZM224.099 206.99H224.315L223.957 207.931C224.002 207.617 224.047 207.311 224.099 206.99V206.99ZM187.304 376.237L185.93 375.894L186.677 375.767L187.371 376.222L187.453 376.282L187.304 376.237ZM201.338 374.229C200.883 373.991 200.42 373.714 199.972 373.431C200.121 373.513 200.711 373.819 201.338 374.229V374.229Z" fill="url(#paint1_linear)"/>
<path d="M229.056 192.892L220.016 216.446H222.21L213.708 223.223L229.056 225.134V192.892Z" fill="#273A3A"/>
<path opacity="0.1" d="M228.027 192.468L218.987 216.023L216.71 215.411L212.679 222.799L228.027 224.71V192.468Z" fill="black"/>
<path d="M214.88 207.961H229.056L234.259 165.158H214.88V207.961Z" fill="#F86D70"/>
<path opacity="0.1" d="M214.88 207.961H229.056L234.259 165.158H214.88V207.961Z" fill="black"/>
<path d="M187.192 175.293L190.253 174.779L197.285 173.584C197.285 173.584 218.403 168.823 222.763 168.435C225.404 168.086 227.979 167.352 230.407 166.255C231.549 165.763 232.273 165.39 232.273 165.39L224.666 151.5L212.864 142.753C212.864 142.753 205.399 141.163 202.241 136.82C201.537 135.885 201.078 134.789 200.907 133.631C200.736 132.473 200.859 131.291 201.263 130.192C203.189 124.222 189.76 135.902 189.76 135.902C189.76 135.902 189.887 138.701 189.76 142.268C189.76 142.97 189.693 143.701 189.64 144.447C189.64 144.94 189.573 145.433 189.521 145.94C189.192 149.485 188.521 153.135 187.192 155.314C183.945 160.643 187.192 175.293 187.192 175.293Z" fill="#FBBEBE"/>
<path opacity="0.1" d="M189.76 142.566H190.058C190.596 142.566 191.029 141.425 191.551 141.372C195.754 140.969 199.591 140.089 202.256 137.111C201.553 136.177 201.096 135.081 200.925 133.925C200.754 132.769 200.876 131.588 201.278 130.491C203.204 124.52 189.775 136.193 189.775 136.193C189.775 136.193 189.916 138.999 189.76 142.566Z" fill="black"/>
<path d="M173.411 125.64C173.41 127.788 173.833 129.916 174.655 131.901C175.477 133.887 176.682 135.691 178.202 137.21C179.722 138.729 181.526 139.934 183.512 140.756C185.497 141.578 187.626 142 189.775 141.999C190.312 141.999 190.842 141.999 191.372 141.925C194.525 141.616 197.521 140.398 199.995 138.42C202.469 136.441 204.316 133.788 205.31 130.78C206.305 127.773 206.405 124.542 205.599 121.479C204.793 118.416 203.114 115.653 200.767 113.525C198.421 111.397 195.506 109.996 192.379 109.492C189.251 108.988 186.044 109.402 183.147 110.685C180.251 111.968 177.789 114.064 176.061 116.719C174.332 119.373 173.412 122.472 173.411 125.64Z" fill="#FBBEBE"/>
<path d="M168.388 100.809C167.85 102.197 168.014 103.75 167.798 105.22C166.999 110.526 161.602 113.706 156.72 115.93C151.838 118.154 146.328 120.788 144.776 125.916C143.074 131.461 146.791 137.021 149.374 142.223C154.406 152.359 155.122 165.285 148.628 174.555C142.857 182.764 132.802 186.66 123.336 190.078C127.892 193.662 133.554 195.546 139.349 195.407C137.176 201.729 129.45 203.826 122.866 204.99C126.322 208.319 131.271 209.528 136.012 210.259C139.468 210.797 143.014 211.147 146.463 210.453C149.912 209.759 153.181 207.886 154.958 204.856C156.451 202.266 156.959 198.736 159.653 197.43C160.87 196.951 162.18 196.76 163.483 196.87L174.681 196.989C178.167 196.989 182.295 196.721 184.094 193.743C184.758 192.471 185.106 191.058 185.109 189.623C185.594 182.279 184.184 174.517 187.207 167.815C188.118 165.793 182.272 162.591 182.885 160.449C184.99 153.082 185.52 147.283 185.497 139.619C185.497 133.685 189.357 128.573 192.544 123.565C195.732 118.557 198.397 112.235 195.881 106.862C193.045 100.869 171.739 92.159 168.388 100.809Z" fill="#3F3D56"/>
<path d="M183.295 374.088L186.147 375.976L186.587 376.267L186.669 376.319L190.051 378.558L197.949 379.887L204.891 379.409C204.891 379.409 206.892 375.23 203.749 375.327C202.743 375.275 201.762 374.992 200.883 374.498L200.45 374.282C199.994 374.043 199.539 373.774 199.091 373.491C198.158 372.901 197.277 372.259 196.568 371.714C195.523 370.908 194.829 370.296 194.829 370.296L183.295 374.088Z" fill="#FBBEBE"/>
<path opacity="0.1" d="M186.184 375.976L186.625 376.267L186.707 376.319L190.088 378.558L197.986 379.887L204.929 379.409C204.929 379.409 206.929 375.23 203.787 375.327C202.78 375.275 201.799 374.992 200.92 374.498C201.472 374.931 201.935 375.401 201.98 375.797C202.107 376.864 196.844 378.782 196.844 378.782L189.424 376.819C189.424 376.819 188.162 376.461 186.438 376.013L186.274 375.969L186.184 375.976Z" fill="black"/>
<path d="M173.494 377.797C173.494 377.797 179.578 379.126 183.668 378.745C187.759 378.364 194.806 381.887 194.806 381.887C194.806 381.887 197.188 383.007 204.511 383.484C211.834 383.962 211.834 380.245 211.834 380.245C210.998 375.192 199.427 373.528 199.069 373.453C199.211 373.528 199.815 373.834 200.427 374.244C201.249 374.782 202.137 375.483 202.204 376.051C202.331 377.11 197.068 379.036 197.068 379.036L189.648 377.081C189.648 377.081 188.386 376.715 186.662 376.267H186.498C183.941 375.571 181.343 375.035 178.719 374.662C175.524 374.319 173.889 377.036 173.553 377.648C173.529 377.696 173.509 377.746 173.494 377.797V377.797Z" fill="#3F3D56"/>
<path d="M77.5977 243.583L80.83 246.061C80.83 246.061 81.7706 246.016 83.174 245.971H83.6219C85.63 245.897 88.3996 245.822 90.7511 245.822C92.2711 245.754 93.7942 245.839 95.2973 246.076C96.9097 246.643 99.7763 236.851 99.7763 236.851L96.5365 236.105L95.4615 235.851L94.715 235.672L92.0798 235.052L84.0922 235.963L78.4785 239.575L77.5977 243.583Z" fill="#FBBEBE"/>
<path opacity="0.1" d="M77.5977 243.583L80.83 246.061C80.83 246.061 81.7706 246.016 83.174 245.971C82.53 245.723 81.999 245.248 81.681 244.635C79.5908 238.836 89.9598 236.359 89.9598 236.359L94.7896 236.15L95.7302 236.105H96.4767L95.4018 235.851L94.6553 235.672L92.0201 235.052L84.0325 235.963L78.4188 239.575L77.5977 243.583Z" fill="black"/>
<path d="M71.2224 246.203C73.1782 248.009 85.9883 246.203 86.5257 246.158C85.5536 246.268 84.5696 246.199 83.6218 245.957C83.1526 245.873 82.7081 245.685 82.3207 245.407C81.9332 245.13 81.6126 244.769 81.3823 244.352C79.2921 238.546 89.6611 236.075 89.6611 236.075L94.4909 235.866L95.4241 235.821L107.167 235.314L107.734 232.082C107.734 232.082 103.919 232.441 97.9323 232.918C94.5656 233.194 90.4673 233.5 86.0405 233.791C73.6709 234.612 70.7297 242.635 70.7297 242.635C70.7297 242.635 69.2292 244.352 71.2224 246.203Z" fill="#3F3D56"/>
<path d="M214.887 106.115C214.967 106.292 215.062 106.462 215.171 106.623L218.022 110.802L225.443 111.549L225.525 108.608L226.771 64.3652C226.771 64.3652 231.907 34.6908 222.203 36.3999C212.498 38.1091 218.59 64.3652 218.59 64.3652C218.59 64.3652 217.485 77.6799 216.709 81.6802C215.955 85.5463 212.573 101.264 214.887 106.115Z" fill="#FBBEBE"/>
<path d="M198.233 216.006L200.345 219.618L205.071 227.701C205.071 227.701 213.64 230.843 215.835 228.448C217.037 227.141 218.336 222.581 219.247 218.745C219.993 215.64 220.493 213.021 220.493 213.021L198.233 216.006Z" fill="#FBBEBE"/>
<path opacity="0.1" d="M198.233 216.006L200.345 219.618C200.478 219.504 200.598 219.377 200.704 219.238C203.092 216.193 213.611 218.588 219.247 218.783C219.993 215.678 220.493 213.058 220.493 213.058L198.233 216.006Z" fill="black"/>
<path opacity="0.1" d="M90.751 245.807C92.2711 245.739 93.7942 245.824 95.2972 246.061C96.9096 246.628 99.7762 236.836 99.7762 236.836L95.4614 235.821L107.204 235.314L107.771 232.082C107.771 232.082 103.957 232.441 97.9697 232.918C96.7326 233.63 95.6287 234.552 94.7074 235.642L94.5283 235.866C92.0275 238.934 91.1018 242.889 90.751 245.807Z" fill="black"/>
<path opacity="0.1" d="M183.295 374.088L186.587 376.267C191.499 375.379 195.986 373.983 196.516 371.789C196.518 371.754 196.518 371.719 196.516 371.685C195.471 370.879 194.776 370.267 194.776 370.267L183.295 374.088Z" fill="black"/>
<path opacity="0.1" d="M173.561 377.67C177.898 377.455 182.22 376.991 186.505 376.282C183.946 375.58 181.346 375.04 178.719 374.662C175.531 374.319 173.897 377.036 173.561 377.67Z" fill="black"/>
<path d="M91.1094 249.576C91.1094 251.957 97.6711 253.48 97.6711 253.48L117.655 271.265C117.655 271.265 130.211 276.877 138.199 284.96C146.186 293.043 153.233 286.102 153.233 286.102C161.699 284.012 186.08 254.525 186.08 254.525C186.08 254.525 186.647 288.199 187.789 290.67C188.931 293.14 187.408 299.894 186.744 302.753C186.325 305.137 186.165 307.559 186.266 309.977C186.266 309.977 177.136 344.884 177.898 347.929C178.659 350.974 172.949 365.244 172.949 365.244V377.133C172.949 377.133 195.306 376.275 196.538 371.237C197.77 366.199 190.932 364.005 190.932 364.005V362.766C195.411 360.482 196.254 344.794 196.254 344.794C196.254 344.794 202.921 325.389 203.869 322.158C204.817 318.926 203.869 314.067 203.869 314.067L204.533 309.888C204.533 309.888 205.959 307.029 205.959 306.462C206.145 305.014 206.703 303.638 207.579 302.469C208.624 301.23 206.437 298.282 206.437 298.282L208.34 293.334V287.916L212.819 268.227C212.819 268.227 217.485 245.3 215.865 237.784C214.245 230.269 217.769 226.47 217.769 226.47C210.132 230.47 206.28 221.566 205.018 217.738C204.697 216.752 204.541 216.096 204.541 216.096C204.541 216.096 194.052 212.23 184.288 213.155C182.305 213.316 180.351 213.73 178.473 214.387C167.626 218.29 165.917 234.456 165.917 234.456L156.309 249.106C151.36 262.137 143.939 263.466 143.939 263.466C143.939 263.466 126.531 251.771 126.023 251.196C125.516 250.621 118.887 247.77 118.887 247.77C118.103 246.391 116.904 245.294 115.46 244.636C113.176 243.68 112.989 240.158 112.989 240.158C112.706 231.881 107.853 231.201 107.853 231.201C91.0123 229.798 91.1094 247.203 91.1094 249.576Z" fill="#3F3D56"/>
<path d="M187.961 203.072H198.233V171.211H187.961V203.072Z" fill="#F86D70"/>
<path opacity="0.1" d="M187.961 203.072H198.233V171.211H187.961V203.072Z" fill="black"/>
<path opacity="0.1" d="M214.88 106.048C214.878 106.07 214.878 106.093 214.88 106.115C214.959 106.292 215.054 106.462 215.163 106.623L218.015 110.802L225.435 111.549L225.517 108.608C223.203 108.429 217.933 107.795 214.88 106.048Z" fill="black"/>
<path d="M215.171 106.623C215.171 106.623 215.552 123.356 211.364 125.64C207.176 127.924 205.548 139.82 205.548 139.82C205.548 139.82 218.239 148.164 221.068 151.836C223.897 155.508 230.392 164.255 229.056 166.345C227.72 168.435 232.296 177.951 232.296 177.951C232.296 177.951 223.92 195.071 225.823 201.542C227.727 208.013 227.914 225.126 227.914 225.126H231.534C231.534 225.126 230.392 211.051 230.392 205.341C230.392 199.632 234.192 179.279 234.192 179.279C234.192 179.279 235.909 159.307 234.192 158.74C232.475 158.173 222.397 150.179 221.636 146.56C220.874 142.94 226.966 109.243 226.966 109.243C226.966 109.243 219.165 108.907 215.171 106.623Z" fill="#273A3A"/>
<path opacity="0.1" d="M187.767 168.256C188.114 170.584 188.962 172.809 190.252 174.779L197.285 173.584C197.285 173.584 218.403 168.823 222.763 168.435C225.404 168.086 227.979 167.352 230.407 166.255C228.734 160.327 225.468 154.971 220.964 150.769L218.284 148.284C214.335 144.618 209.758 141.693 204.772 139.648C205.085 139.91 227.242 158.822 222.389 162.531C217.537 166.24 204.473 157.21 204.473 157.21L189.618 144.447L189.08 143.985L188.222 145.321C188.659 145.5 189.085 145.705 189.498 145.933C194.561 148.711 198.319 153.38 199.95 158.919C203.003 169.181 187.767 168.256 187.767 168.256Z" fill="black"/>
<path d="M183.198 215.812C183.198 215.812 197.277 223.611 200.696 219.238C201.443 218.275 203.018 217.857 204.981 217.745C204.66 216.76 204.503 216.103 204.503 216.103C204.503 216.103 194.015 212.237 184.251 213.163C183.609 214.775 183.198 215.812 183.198 215.812Z" fill="#444053"/>
<path d="M189.678 143.999L205.071 157.239C205.071 157.239 218.082 166.3 222.987 162.561C227.891 158.822 205.362 139.671 205.362 139.671C210.337 141.721 214.909 144.637 218.866 148.283L221.546 150.769C228.593 157.299 230.183 157.299 230.422 166.897C230.482 169.263 229.675 172.659 229.056 173.271C226.771 175.51 225.174 191.772 225.525 193.676C225.876 195.579 221.27 212.006 222.763 216.573C224.256 221.141 204.1 214.289 200.689 218.67C197.277 223.051 183.198 215.245 183.198 215.245C183.198 215.245 190.999 195.265 192.903 193.937C194.806 192.608 197.09 182.331 192.903 177.577C188.715 172.823 188.341 168.255 188.341 168.255C188.341 168.255 203.57 169.196 200.517 158.934C199.658 155.959 198.168 153.205 196.148 150.858C194.128 148.511 191.626 146.628 188.812 145.335L189.678 143.999Z" fill="#E8E8F0"/>
<path opacity="0.1" d="M210.221 177.674C210.221 177.674 204.317 188.802 196.68 191.69C196.433 191.78 196.195 191.862 195.933 191.937C187.961 194.362 210.819 181.122 210.221 177.674Z" fill="black"/>
<path d="M127.643 79.2248C127.643 79.2248 130.495 86.4569 132.779 88.9272C135.063 91.3976 151.994 116.131 151.994 116.131L153.427 119.117L154.659 121.662L165.506 120.52L166.252 116.146L165.834 115.639C164.744 114.333 161.773 110.825 159.78 109.295C157.309 107.399 152.36 101.122 152.36 101.122C152.36 101.122 136.952 85.1358 135.81 80.7623C134.668 76.3888 119.252 50.1625 115.833 54.7002C112.415 59.2379 127.643 79.2248 127.643 79.2248Z" fill="#FBBEBE"/>
<g opacity="0.1">
<path opacity="0.1" d="M159.116 196.87C157.814 196.757 156.503 196.946 155.286 197.422C152.599 198.728 152.091 202.259 150.598 204.848C148.851 207.878 145.522 209.752 142.096 210.446C141.414 210.578 140.727 210.673 140.035 210.73C142.218 210.942 144.419 210.846 146.575 210.446C150.001 209.752 153.33 207.878 155.077 204.848C156.57 202.259 157.078 198.728 159.765 197.422C160.471 197.105 161.231 196.927 162.005 196.9L159.116 196.87Z" fill="black"/>
<path opacity="0.1" d="M185.632 139.618C185.632 133.685 189.491 128.573 192.671 123.565C195.851 118.557 198.524 112.235 196.008 106.862C193.858 102.272 180.899 96.1145 173.419 97.331C180.742 98.2789 189.767 103.1 191.529 106.862C194.045 112.235 191.372 118.557 188.192 123.565C185.012 128.573 181.138 133.685 181.153 139.618C181.153 147.276 180.638 153.053 178.532 160.449C177.928 162.576 183.758 165.793 182.862 167.808C179.831 174.525 181.25 182.272 180.764 189.616C180.754 191.05 180.404 192.462 179.742 193.735C178.249 196.191 175.188 196.825 172.21 196.96H174.815C178.294 196.96 182.422 196.691 184.221 193.713C184.883 192.44 185.233 191.028 185.243 189.593C185.729 182.249 184.31 174.495 187.341 167.785C188.252 165.77 182.407 162.561 183.011 160.426C185.117 153.082 185.647 147.276 185.632 139.618Z" fill="black"/>
</g>
<path opacity="0.1" d="M153.427 119.102L154.659 121.647L165.506 120.505L166.252 116.131L165.834 115.624C164.677 116.191 156.01 120.363 153.427 119.102Z" fill="black"/>
<path opacity="0.1" d="M193.477 147.709C193.477 147.709 190.812 143.529 189.289 144.664C187.767 145.798 187.177 141.238 186.303 141.999C185.43 142.761 182.884 144.88 181.824 141.917C180.996 139.559 171.978 124.64 168.32 118.639C167.38 117.087 166.79 116.131 166.79 116.131C166.79 116.131 156.518 121.266 154.047 119.557V123.169L156.137 123.363L167.335 144.261C167.335 144.261 170.858 149.866 170.619 151.821C170.381 153.777 175.136 162.337 175.897 162.904C176.659 163.471 184.855 172.987 184.855 172.987C184.855 172.987 189.043 193.534 185.423 199.243C181.802 204.953 175.531 209.132 175.531 209.132C175.531 209.132 173.643 214.648 173.919 215.223C174.195 215.797 171.724 218.268 172.866 219.029C174.009 219.79 175.531 225.111 175.531 225.111C175.531 225.111 180.861 216.551 183.743 215.223C186.624 213.894 190.312 196.385 190.312 196.385C190.312 196.385 191.365 186.071 191.447 179.413C191.529 172.756 191.193 147.709 193.477 147.709Z" fill="black"/>
<path d="M192.903 147.709C192.903 147.709 190.245 143.529 188.722 144.664C187.199 145.798 186.602 141.238 185.736 141.999C184.87 142.761 182.325 144.88 181.257 141.917C180.421 139.559 171.403 124.64 167.753 118.639L166.223 116.131C166.223 116.131 155.951 121.266 153.472 119.557V123.169L155.57 123.363L166.768 144.261C166.768 144.261 170.299 149.866 170.052 151.821C169.806 153.777 174.531 162.337 175.33 162.904C176.129 163.472 184.288 172.987 184.288 172.987C184.288 172.987 188.476 193.534 184.863 199.243C182.954 202.111 180.632 204.681 177.973 206.871C175.738 208.714 174.166 211.234 173.494 214.051C173.364 214.435 173.318 214.842 173.359 215.245C173.635 215.812 171.164 218.29 172.307 219.051C173.449 219.813 174.987 225.156 174.987 225.156C174.987 225.156 180.317 216.596 183.198 215.267C186.08 213.939 189.775 196.43 189.775 196.43C189.775 196.43 190.82 186.115 190.91 179.458C190.999 172.801 190.663 147.709 192.903 147.709Z" fill="#273A3A"/>
<path opacity="0.1" d="M166.835 234.269C166.835 234.269 174.83 235.762 178.032 238.068C181.235 240.374 165.857 234.456 165.857 234.456L166.835 234.269Z" fill="black"/>
<path opacity="0.1" d="M186.057 254.524C186.057 254.524 194.396 261.473 192.903 267.75C191.41 274.026 187.558 289.819 187.558 289.819L186.057 254.524Z" fill="black"/>
<path opacity="0.1" d="M113.131 241.165C113.131 241.165 101.381 242.449 102.143 243.971C102.904 245.494 113.131 242.568 113.131 242.568V241.165Z" fill="black"/>
<path opacity="0.1" d="M203.354 298.946C203.354 298.946 204.1 299.894 199.74 298.946C195.381 297.999 198.598 295.073 198.598 295.073L203.354 298.946Z" fill="black"/>
<path opacity="0.1" d="M201.861 312.075C201.861 312.075 195.889 313.022 192.686 312.075C189.484 311.127 201.861 312.075 201.861 312.075Z" fill="black"/>
<path opacity="0.1" d="M189.573 363.438C189.573 363.438 188.528 362.296 183.295 364.385C178.062 366.475 175.972 366.572 174.449 365.878C172.926 365.184 189.573 363.438 189.573 363.438Z" fill="black"/>
<path opacity="0.1" d="M195.381 239.546L187.961 249.867C187.961 249.867 191.954 240.829 195.381 239.546Z" fill="black"/>
<path opacity="0.1" d="M180.959 144.664C180.959 144.664 180.638 148.09 175.852 149.425C171.067 150.761 170.157 151.844 170.157 151.844" fill="black"/>
<path opacity="0.1" d="M168.522 119.833C168.522 119.833 162.206 124.311 155.615 123.363Z" fill="black"/>
<path opacity="0.1" d="M173.329 215.715C173.329 215.715 175.173 216.872 179.6 211.812Z" fill="black"/>
<path opacity="0.1" d="M219.306 162.061C219.486 161.136 218.844 160.277 218.239 159.553L217 158.061C216.758 157.755 216.485 157.475 216.186 157.225C215.44 156.65 214.484 156.478 213.708 155.963" fill="black"/>
<path d="M641.693 387.485C658.271 387.485 671.71 385.212 671.71 382.41C671.71 379.607 658.271 377.334 641.693 377.334C625.115 377.334 611.676 379.607 611.676 382.41C611.676 385.212 625.115 387.485 641.693 387.485Z" fill="#E1AA47"/>
<path d="M654.107 374.11C655.478 372.994 656.475 371.486 656.967 369.789C657.34 368.08 656.608 366.057 654.966 365.393C653.129 364.691 651.166 365.968 649.681 367.251C648.195 368.535 646.486 370.005 644.545 369.729C645.545 368.821 646.293 367.669 646.717 366.386C647.141 365.103 647.226 363.733 646.963 362.407C646.878 361.858 646.646 361.343 646.292 360.915C645.269 359.825 643.425 360.288 642.201 361.146C638.319 363.878 637.236 369.154 637.214 373.894C636.826 372.184 637.154 370.401 637.147 368.669C637.139 366.938 636.654 364.938 635.169 364.02C634.252 363.527 633.222 363.285 632.183 363.318C630.443 363.251 628.495 363.43 627.308 364.706C625.815 366.288 626.211 368.945 627.495 370.677C628.779 372.408 630.742 373.52 632.548 374.722C633.994 375.584 635.226 376.76 636.154 378.163C636.266 378.359 636.356 378.567 636.423 378.782H647.366C649.814 377.536 652.082 375.964 654.107 374.11V374.11Z" fill="#E1AA47"/>
</g>
<defs>
<linearGradient id="paint0_linear" x1="603.556" y1="376.848" x2="603.556" y2="76.5965" gradientUnits="userSpaceOnUse">
<stop stop-color="#808080" stop-opacity="0.25"/>
<stop offset="0.54" stop-color="#808080" stop-opacity="0.12"/>
<stop offset="1" stop-color="#808080" stop-opacity="0.1"/>
</linearGradient>
<linearGradient id="paint1_linear" x1="29707" y1="186923" x2="66577.9" y2="186923" gradientUnits="userSpaceOnUse">
<stop stop-color="#808080" stop-opacity="0.25"/>
<stop offset="0.54" stop-color="#808080" stop-opacity="0.12"/>
<stop offset="1" stop-color="#808080" stop-opacity="0.1"/>
</linearGradient>
<clipPath id="clip0">
<rect width="854" height="487" fill="white"/>
</clipPath>
</defs>
</svg>
